<svg width="32.979" height="18.516" viewBox="0 0 32.979 18.516" xmlns="http://www.w3.org/2000/svg"><g id="svgGroup" stroke-linecap="round" fill-rule="evenodd" font-size="9pt" stroke="#00e8c9" stroke-width="0.25mm" fill="#000" style="stroke:#00e8c9;stroke-width:0.25mm;fill:#000"><path d="M 6.826 5.791 L 6.934 6.104 A 17.535 17.535 0 0 1 7.422 7.964 A 16.081 16.081 0 0 1 7.446 8.086 A 374.862 374.862 0 0 0 7.491 8.317 Q 7.631 9.03 7.662 9.173 A 1.655 1.655 0 0 0 7.666 9.19 Q 8.281 11.69 8.633 11.69 A 2.441 2.441 0 0 0 8.928 11.278 Q 9.345 10.572 9.844 9.085 A 33.12 33.12 0 0 0 10.044 8.467 Q 10.786 6.101 10.911 5.79 A 0.433 0.433 0 0 1 10.928 5.752 Q 11.078 5.463 11.269 5.332 A 0.595 0.595 0 0 1 11.611 5.225 A 0.478 0.478 0 0 1 11.691 5.231 Q 11.831 5.254 11.836 5.372 A 0.209 0.209 0 0 1 11.836 5.381 L 11.836 5.557 A 8.907 8.907 0 0 1 11.781 6.487 Q 11.652 7.708 11.216 9.497 Q 10.615 11.964 10.358 12.663 A 3.453 3.453 0 0 1 10.342 12.705 A 1.87 1.87 0 0 1 10.106 13.143 Q 9.749 13.625 9.131 13.633 A 1.616 1.616 0 0 1 9.111 13.633 A 0.641 0.641 0 0 1 8.82 13.554 Q 8.476 13.378 8.046 12.807 A 6.188 6.188 0 0 1 8.027 12.783 Q 7.647 12.275 6.733 10.649 Q 5.82 9.024 5.791 9.024 Q 5.766 9.024 5.138 10.254 A 208.064 208.064 0 0 0 4.937 10.649 A 56.732 56.732 0 0 1 4.575 11.351 Q 4.121 12.215 3.848 12.641 A 4.482 4.482 0 0 1 3.74 12.803 A 6.038 6.038 0 0 1 3.485 13.145 Q 3.074 13.653 2.775 13.727 A 0.409 0.409 0 0 1 2.676 13.74 Q 1.858 13.74 1.502 12.853 A 2.505 2.505 0 0 1 1.475 12.783 Q 1.158 11.915 0.78 10.18 A 63.505 63.505 0 0 1 0.527 8.955 A 87.882 87.882 0 0 1 0.348 8.021 Q 0 6.148 0 5.576 A 0.235 0.235 0 0 1 0.029 5.456 Q 0.085 5.361 0.245 5.339 A 0.786 0.786 0 0 1 0.352 5.332 A 0.486 0.486 0 0 1 0.623 5.421 Q 0.791 5.533 0.955 5.785 A 2.586 2.586 0 0 1 1.035 5.918 Q 1.201 6.221 2.012 9.111 A 12.008 12.008 0 0 0 2.366 10.181 Q 2.567 10.701 2.801 11.132 A 6.314 6.314 0 0 0 2.988 11.455 Q 3.125 11.672 3.215 11.71 A 0.094 0.094 0 0 0 3.252 11.719 A 0.186 0.186 0 0 0 3.375 11.624 Q 3.621 11.293 4.075 9.807 A 45.374 45.374 0 0 0 4.307 9.024 A 43.149 43.149 0 0 0 4.573 8.041 A 58.331 58.331 0 0 0 4.844 6.948 A 59.546 59.546 0 0 1 4.909 6.678 Q 5.126 5.786 5.186 5.684 A 0.976 0.976 0 0 1 5.367 5.449 A 0.724 0.724 0 0 1 5.879 5.254 Q 6.371 5.254 6.635 5.51 A 0.871 0.871 0 0 1 6.826 5.791 Z M 25.781 5.176 L 26.572 5.391 Q 26.719 5.391 27.7 5.02 Q 28.564 4.693 29.114 4.654 A 2.029 2.029 0 0 1 29.258 4.649 L 29.463 4.649 A 3.697 3.697 0 0 1 30.642 4.828 A 3.044 3.044 0 0 1 32.026 5.781 A 3.95 3.95 0 0 1 32.856 7.513 A 5.714 5.714 0 0 1 32.979 8.731 L 32.979 8.955 Q 32.979 11.641 31.611 13.145 Q 30.446 14.427 28.285 14.434 A 7.328 7.328 0 0 1 28.262 14.434 A 5.523 5.523 0 0 1 27.461 14.375 Q 27.12 14.325 26.985 14.318 A 0.766 0.766 0 0 0 26.943 14.316 A 0.285 0.285 0 0 0 26.704 14.48 Q 26.464 14.872 26.447 16.202 A 16.35 16.35 0 0 0 26.445 16.416 Q 26.445 17.638 26.105 18.149 A 0.761 0.761 0 0 1 25.44 18.516 L 25.283 18.516 A 0.588 0.588 0 0 1 24.995 18.449 Q 24.755 18.316 24.702 17.918 A 1.864 1.864 0 0 1 24.688 17.676 L 24.688 17.256 L 24.707 16.836 A 9.251 9.251 0 0 0 24.717 16.416 L 24.727 16.191 A 10.254 10.254 0 0 0 24.736 15.866 A 8.924 8.924 0 0 0 24.736 15.762 L 24.746 15.547 Q 24.756 15.332 24.756 15.108 L 24.766 14.893 A 10.12 10.12 0 0 0 24.775 14.453 L 24.785 14.238 A 10.12 10.12 0 0 0 24.795 13.799 L 24.815 13.359 L 24.883 9.639 L 24.883 7.695 L 24.863 6.856 Q 24.863 6.118 24.879 5.943 A 0.48 0.48 0 0 1 24.883 5.908 Q 24.988 5.304 25.53 5.198 A 1.311 1.311 0 0 1 25.781 5.176 Z M 14.522 11.748 L 14.522 10.488 L 14.531 10.322 L 14.531 9.99 L 14.59 7.275 L 14.59 6.934 L 14.609 6.416 A 724.635 724.635 0 0 1 14.61 5.23 Q 14.616 1.512 14.663 0.868 A 2.146 2.146 0 0 1 14.668 0.811 A 1.393 1.393 0 0 1 14.735 0.487 Q 14.904 0 15.449 0 L 15.606 0 Q 16.187 0 16.344 0.455 A 0.95 0.95 0 0 1 16.377 0.576 A 0.694 0.694 0 0 1 16.386 0.655 Q 16.414 1.018 16.416 2.762 A 238.946 238.946 0 0 1 16.416 3.008 L 16.387 3.848 L 16.387 4.18 L 16.348 5.537 A 885.885 885.885 0 0 0 16.349 6.734 Q 16.354 10.676 16.397 11.172 Q 16.439 11.659 16.614 12.254 A 8.352 8.352 0 0 0 16.675 12.451 Q 16.857 13.016 16.895 13.366 A 1.584 1.584 0 0 1 16.904 13.535 A 1.009 1.009 0 0 1 16.855 13.867 Q 16.698 14.317 16.051 14.335 A 1.967 1.967 0 0 1 15.996 14.336 L 15.693 14.336 A 0.792 0.792 0 0 1 15.058 14.022 Q 14.956 13.897 14.873 13.724 A 2.133 2.133 0 0 1 14.819 13.604 A 3.621 3.621 0 0 1 14.627 12.944 Q 14.522 12.415 14.522 11.748 Z M 19.688 11.748 L 19.688 10.488 L 19.697 10.322 L 19.697 9.99 L 19.756 7.275 L 19.756 6.934 L 19.775 6.416 A 724.635 724.635 0 0 1 19.776 5.23 Q 19.783 1.512 19.829 0.868 A 2.146 2.146 0 0 1 19.834 0.811 A 1.393 1.393 0 0 1 19.901 0.487 Q 20.07 0 20.615 0 L 20.772 0 Q 21.353 0 21.51 0.455 A 0.95 0.95 0 0 1 21.543 0.576 A 0.694 0.694 0 0 1 21.552 0.655 Q 21.58 1.018 21.582 2.762 A 238.946 238.946 0 0 1 21.582 3.008 L 21.553 3.848 L 21.553 4.18 L 21.514 5.537 A 885.885 885.885 0 0 0 21.515 6.734 Q 21.52 10.676 21.563 11.172 Q 21.605 11.659 21.78 12.254 A 8.352 8.352 0 0 0 21.841 12.451 Q 22.023 13.016 22.061 13.366 A 1.584 1.584 0 0 1 22.07 13.535 A 1.009 1.009 0 0 1 22.021 13.867 Q 21.864 14.317 21.217 14.335 A 1.967 1.967 0 0 1 21.162 14.336 L 20.859 14.336 A 0.792 0.792 0 0 1 20.224 14.022 Q 20.122 13.897 20.039 13.724 A 2.133 2.133 0 0 1 19.985 13.604 A 3.621 3.621 0 0 1 19.793 12.944 Q 19.688 12.415 19.688 11.748 Z M 31.084 9.424 L 31.084 8.975 A 6.14 6.14 0 0 0 31.018 8.045 Q 30.9 7.276 30.571 6.719 Q 30.084 5.893 29.179 5.852 A 2.119 2.119 0 0 0 29.082 5.85 L 28.887 5.85 Q 28.35 5.85 27.808 6.123 A 2.421 2.421 0 0 0 27.356 6.414 A 1.861 1.861 0 0 0 26.983 6.826 A 2.289 2.289 0 0 0 26.733 7.379 Q 26.484 8.167 26.484 9.541 L 26.484 10.713 A 7.858 7.858 0 0 0 26.509 11.352 Q 26.562 12.005 26.734 12.414 A 1.559 1.559 0 0 0 26.87 12.671 Q 27.256 13.252 28.213 13.252 L 28.408 13.252 A 2.21 2.21 0 0 0 29.551 12.935 A 2.968 2.968 0 0 0 29.942 12.661 Q 30.195 12.451 30.352 12.207 A 4.452 4.452 0 0 0 30.97 10.646 A 6.232 6.232 0 0 0 31.084 9.424 Z" vector-effect="non-scaling-stroke"/></g></svg>