<svg width="74.202" height="41.661" viewBox="0 0 74.202 41.661" xmlns="http://www.w3.org/2000/svg"><g id="svgGroup" stroke-linecap="round" fill-rule="evenodd" font-size="9pt" stroke="#00ffdd" stroke-width="0.2mm" fill="#000" style="stroke:#00ffdd;stroke-width:0.2mm;fill:#000"><path d="M 15.359 13.03 L 15.601 13.733 Q 16.326 15.996 16.754 18.194 A 844.311 844.311 0 0 0 16.856 18.713 Q 17.191 20.427 17.249 20.676 Q 18.633 26.301 19.424 26.301 Q 20.614 25.015 22.149 20.44 A 74.522 74.522 0 0 0 22.599 19.05 Q 24.269 13.728 24.55 13.028 A 0.974 0.974 0 0 1 24.588 12.942 A 3.374 3.374 0 0 1 24.914 12.423 Q 25.434 11.756 26.126 11.756 Q 26.617 11.756 26.631 12.088 A 0.47 0.47 0 0 1 26.631 12.107 L 26.631 12.503 Q 26.631 15.127 25.658 19.552 A 82.595 82.595 0 0 1 25.236 21.369 Q 23.883 26.919 23.305 28.492 A 7.771 7.771 0 0 1 23.269 28.587 Q 22.466 30.65 20.545 30.674 A 3.628 3.628 0 0 1 20.501 30.674 A 1.442 1.442 0 0 1 19.846 30.497 Q 19.055 30.092 18.062 28.762 Q 17.205 27.62 15.15 23.961 A 505.045 505.045 0 0 0 14.668 23.104 Q 13.088 20.303 13.03 20.303 A 0.167 0.167 0 0 0 12.986 20.36 Q 12.77 20.701 11.56 23.071 A 468.217 468.217 0 0 0 11.107 23.961 A 127.65 127.65 0 0 1 10.293 25.54 Q 9.273 27.484 8.659 28.442 A 10.084 10.084 0 0 1 8.416 28.806 A 13.586 13.586 0 0 1 7.84 29.576 Q 6.916 30.719 6.245 30.887 A 0.92 0.92 0 0 1 6.021 30.916 Q 4.18 30.916 3.379 28.92 A 5.637 5.637 0 0 1 3.318 28.762 A 24.401 24.401 0 0 1 2.831 27.252 Q 2.077 24.664 1.187 20.149 Q 0 14.129 0 12.547 Q 0 12.088 0.551 12.012 A 1.768 1.768 0 0 1 0.791 11.997 A 1.094 1.094 0 0 1 1.402 12.198 Q 1.874 12.512 2.329 13.316 A 3.688 3.688 0 0 1 2.515 13.762 Q 2.942 14.929 4.014 18.686 A 422.008 422.008 0 0 1 4.527 20.501 Q 5.427 23.687 6.724 25.774 Q 7.097 26.367 7.317 26.367 Q 7.954 26.367 9.69 20.303 A 97.085 97.085 0 0 0 10.289 18.092 A 131.24 131.24 0 0 0 10.899 15.634 Q 11.401 13.526 11.596 12.963 A 1.118 1.118 0 0 1 11.668 12.788 Q 12.217 11.821 13.228 11.821 Q 14.335 11.821 14.929 12.397 A 1.96 1.96 0 0 1 15.359 13.03 Z M 58.008 11.646 L 59.788 12.129 A 0.944 0.944 0 0 0 59.977 12.1 Q 60.43 11.996 61.71 11.524 A 78.161 78.161 0 0 0 62.326 11.294 Q 64.534 10.459 65.83 10.459 L 66.292 10.459 A 8.319 8.319 0 0 1 68.945 10.864 A 6.85 6.85 0 0 1 72.06 13.008 A 8.888 8.888 0 0 1 73.925 16.905 A 12.858 12.858 0 0 1 74.202 19.644 L 74.202 20.149 A 19.119 19.119 0 0 1 73.855 23.909 Q 73.404 26.153 72.37 27.892 A 10.397 10.397 0 0 1 71.126 29.575 Q 68.503 32.46 63.642 32.476 A 16.508 16.508 0 0 1 63.589 32.476 A 12.427 12.427 0 0 1 61.787 32.344 A 33.967 33.967 0 0 0 61.424 32.293 Q 60.829 32.212 60.623 32.212 Q 59.561 32.212 59.505 36.455 A 36.784 36.784 0 0 0 59.502 36.936 Q 59.502 39.685 58.736 40.834 A 1.712 1.712 0 0 1 57.239 41.66 L 56.887 41.66 Q 55.757 41.66 55.58 40.315 A 4.194 4.194 0 0 1 55.547 39.771 L 55.547 38.826 L 55.591 37.881 Q 55.613 37.398 55.613 36.936 L 55.635 36.431 A 23.073 23.073 0 0 0 55.656 35.698 A 20.082 20.082 0 0 0 55.657 35.464 L 55.679 34.981 Q 55.701 34.497 55.701 33.992 L 55.723 33.508 A 22.77 22.77 0 0 0 55.745 32.52 L 55.767 32.036 A 22.77 22.77 0 0 0 55.789 31.048 L 55.833 30.059 L 55.987 21.687 L 55.987 17.315 L 55.943 15.425 A 123.158 123.158 0 0 1 55.944 14.781 Q 55.95 13.683 55.977 13.372 A 1.079 1.079 0 0 1 55.987 13.294 Q 56.272 11.646 58.008 11.646 Z M 32.674 26.433 L 32.674 23.599 L 32.696 23.225 L 32.696 22.478 L 32.827 16.37 L 32.827 15.601 L 32.871 14.436 A 1630.488 1630.488 0 0 1 32.873 11.769 Q 32.888 2.977 33.003 1.824 Q 33.161 0.187 34.452 0.019 A 2.402 2.402 0 0 1 34.761 0 L 35.113 0 Q 36.585 0 36.848 1.297 Q 36.931 1.691 36.936 6.214 A 537.071 537.071 0 0 1 36.936 6.768 L 36.87 8.657 L 36.87 9.404 L 36.782 12.459 Q 36.782 23.862 36.892 25.137 A 10.465 10.465 0 0 0 37.066 26.315 Q 37.228 27.113 37.519 28.015 A 18.073 18.073 0 0 1 37.744 28.769 Q 37.954 29.535 38.013 30.074 A 3.565 3.565 0 0 1 38.035 30.454 A 2.27 2.27 0 0 1 37.923 31.2 Q 37.571 32.214 36.116 32.254 A 4.425 4.425 0 0 1 35.991 32.256 L 35.31 32.256 Q 34.126 32.256 33.464 30.88 A 4.798 4.798 0 0 1 33.344 30.608 A 8.147 8.147 0 0 1 32.91 29.124 Q 32.762 28.38 32.707 27.515 A 16.948 16.948 0 0 1 32.674 26.433 Z M 44.297 26.433 L 44.297 23.599 L 44.319 23.225 L 44.319 22.478 L 44.451 16.37 L 44.451 15.601 L 44.495 14.436 A 1630.488 1630.488 0 0 1 44.497 11.769 Q 44.511 2.977 44.627 1.824 Q 44.784 0.187 46.075 0.019 A 2.402 2.402 0 0 1 46.384 0 L 46.736 0 Q 48.208 0 48.472 1.297 Q 48.555 1.691 48.56 6.214 A 537.071 537.071 0 0 1 48.56 6.768 L 48.494 8.657 L 48.494 9.404 L 48.406 12.459 Q 48.406 23.862 48.516 25.137 A 10.465 10.465 0 0 0 48.69 26.315 Q 48.852 27.113 49.142 28.015 A 18.073 18.073 0 0 1 49.368 28.769 Q 49.578 29.535 49.636 30.074 A 3.565 3.565 0 0 1 49.658 30.454 A 2.27 2.27 0 0 1 49.546 31.2 Q 49.194 32.214 47.739 32.254 A 4.425 4.425 0 0 1 47.615 32.256 L 46.934 32.256 Q 45.749 32.256 45.087 30.88 A 4.798 4.798 0 0 1 44.967 30.608 A 8.147 8.147 0 0 1 44.533 29.124 Q 44.386 28.38 44.33 27.515 A 16.948 16.948 0 0 1 44.297 26.433 Z M 69.939 21.204 L 69.939 20.193 A 13.814 13.814 0 0 0 69.79 18.101 Q 69.525 16.37 68.786 15.117 A 4.283 4.283 0 0 0 67.822 13.964 Q 66.919 13.225 65.652 13.167 A 4.768 4.768 0 0 0 65.435 13.162 L 64.995 13.162 A 5.086 5.086 0 0 0 63.214 13.494 A 6.329 6.329 0 0 0 62.567 13.777 A 5.446 5.446 0 0 0 61.552 14.431 A 4.187 4.187 0 0 0 60.711 15.359 Q 59.59 17.095 59.59 21.467 L 59.59 24.104 Q 59.59 26.598 60.152 27.931 A 3.507 3.507 0 0 0 60.458 28.51 Q 61.232 29.676 63.029 29.802 A 6.44 6.44 0 0 0 63.479 29.817 L 63.919 29.817 A 4.972 4.972 0 0 0 66.489 29.103 A 6.679 6.679 0 0 0 67.37 28.488 Q 67.939 28.014 68.291 27.466 A 10.017 10.017 0 0 0 69.683 23.953 A 14.021 14.021 0 0 0 69.939 21.204 Z"/></g></svg>